<svg width="25" height="25" viewBox="0 0 25 25" fill="none" xmlns="http://www.w3.org/2000/svg">
<path d="M3.33325 12.5C3.33325 7.52943 7.36268 3.5 12.3333 3.5C17.3038 3.5 21.3333 7.52943 21.3333 12.5V18.9286C21.3333 19.2271 21.3333 19.3764 21.3192 19.502C21.2016 20.5451 20.3783 21.3684 19.3353 21.4859C19.2096 21.5 19.0603 21.5 18.7618 21.5H12.3333C7.36268 21.5 3.33325 17.4706 3.33325 12.5Z" stroke="white"/>
<path d="M9.70825 15.0625C9.84632 15.0625 9.95825 15.1744 9.95825 15.3125C9.95825 15.4506 9.84632 15.5625 9.70825 15.5625C9.57019 15.5625 9.45825 15.4506 9.45825 15.3125C9.45825 15.1744 9.57019 15.0625 9.70825 15.0625Z" fill="black" stroke="white"/>
<path d="M12.747 9.99279C12.8846 9.71432 13.2818 9.71432 13.4194 9.99279L13.6055 10.3694C13.9213 11.0086 14.3788 11.5673 14.9431 12.003L15.3238 12.2969C15.5182 12.447 15.5182 12.7404 15.3238 12.8905L14.9431 13.1844C14.3788 13.6201 13.9213 14.1788 13.6055 14.818L13.4194 15.1946C13.2818 15.4731 12.8846 15.4731 12.747 15.1946L12.5609 14.818C12.245 14.1788 11.7875 13.6201 11.2232 13.1844L10.8426 12.8905C10.6482 12.7404 10.6482 12.447 10.8426 12.2969L11.2232 12.003C11.7875 11.5673 12.245 11.0086 12.5609 10.3694L12.747 9.99279Z" stroke="white" stroke-linejoin="round"/>
</svg>
