<svg width="18" height="18" viewBox="0 0 18 18" fill="none" xmlns="http://www.w3.org/2000/svg">
<path d="M9 0.25C4.16781 0.25 0.25 4.16781 0.25 9C0.25 13.8322 4.16781 17.75 9 17.75C13.8322 17.75 17.75 13.8322 17.75 9C17.75 4.16781 13.8322 0.25 9 0.25ZM9 0.875C10.6009 0.875 12.0909 1.34687 13.3506 2.14937L11.0537 4.44625C10.4089 4.15265 9.70858 4.00049 9 4C8.2675 4 7.57344 4.16219 6.94625 4.44625L4.64937 2.14937C5.90906 1.34687 7.39906 0.875 9 0.875ZM4.44625 11.0537L2.14937 13.3506C1.34687 12.0913 0.875 10.6009 0.875 9C0.875 7.39906 1.34687 5.90875 2.14937 4.64937L4.44625 6.94625C4.15262 7.59113 4.00046 8.29141 4 9C4 9.7325 4.16219 10.4262 4.44625 11.0537ZM9 17.125C7.39906 17.125 5.90906 16.6531 4.64937 15.8506L6.94625 13.5537C7.59113 13.8474 8.29141 13.9995 9 14C9.7325 14 10.4262 13.8378 11.0537 13.5537L13.3506 15.8506C12.0909 16.6531 10.6009 17.125 9 17.125ZM13.0759 10.5803C12.8554 11.1462 12.5198 11.6602 12.0903 12.0897C11.6608 12.5192 11.1469 12.8548 10.5809 13.0753C10.0772 13.2726 9.54103 13.3743 9 13.375C8.44219 13.375 7.91 13.2662 7.41906 13.0753C6.5979 12.7552 5.89217 12.1953 5.3938 11.4684C4.89544 10.7415 4.62753 9.88133 4.625 9C4.62871 7.84082 5.09084 6.73017 5.9105 5.9105C6.73017 5.09084 7.84082 4.62871 9 4.625C10.1592 4.62871 11.2698 5.09084 12.0895 5.9105C12.9092 6.73017 13.3713 7.84082 13.375 9C13.375 9.55781 13.2662 10.0894 13.0759 10.5803ZM13.5537 11.0537C13.8472 10.4088 13.9994 9.70857 14 9C13.9994 8.29143 13.8472 7.59118 13.5537 6.94625L15.8506 4.64937C16.6531 5.90875 17.125 7.39906 17.125 9C17.125 10.6009 16.6531 12.0913 15.8506 13.3506L13.5537 11.0537Z" fill="#FF4100"/>
</svg>
