<svg width="40" height="41" viewBox="0 0 40 41" fill="none" xmlns="http://www.w3.org/2000/svg">
<path d="M20 9.75073C20.6376 9.75073 21.259 9.93824 21.7881 10.2869L22.0088 10.446L28.9307 15.8835H28.9316C29.4275 16.2725 29.84 16.7558 30.1465 17.3044L30.2715 17.5437C30.5865 18.1914 30.7502 18.9026 30.75 19.6228V26.4998C30.75 27.6808 30.3104 28.8169 29.5215 29.6882L29.3584 29.8591C28.4676 30.7497 27.2596 31.2498 26 31.2498H23.75C23.7002 31.2498 23.6521 31.235 23.6113 31.2078L23.5732 31.1765C23.5265 31.1296 23.5 31.066 23.5 30.9998V25.7498C23.4999 24.8797 23.1759 24.0431 22.5947 23.4011L22.4746 23.2751C21.8593 22.66 21.0387 22.2976 20.1738 22.2546L20 22.2498C19.13 22.2498 18.2933 22.574 17.6514 23.155L17.5254 23.2751C16.8691 23.9315 16.5001 24.8216 16.5 25.7498V30.9998C16.5 31.0494 16.4851 31.0977 16.458 31.1384L16.4268 31.1765C16.3799 31.2234 16.3163 31.2498 16.25 31.2498H14C12.8189 31.2498 11.6829 30.8103 10.8115 30.0212L10.6416 29.8591C9.7508 28.9683 9.25 27.7595 9.25 26.4998V19.6228L9.25781 19.3533C9.28819 18.8152 9.40932 18.286 9.61719 17.7888L9.72852 17.5437C10.0043 16.9768 10.3895 16.4708 10.8613 16.0554L11.0684 15.8835H11.0693L17.9912 10.446C18.5639 9.99586 19.2715 9.75073 20 9.75073Z" stroke="white"/>
</svg>
