<svg width="16" height="16" viewBox="0 0 16 16" fill="none" xmlns="http://www.w3.org/2000/svg">
<path d="M3.27778 14.1111C3.21383 14.1106 3.15202 14.088 3.10278 14.0472C1.85208 13.0356 0.945817 11.661 0.508815 10.1129C0.0718123 8.5648 0.125571 6.91927 0.662687 5.40298C1.1998 3.88669 2.19385 2.57423 3.50791 1.64639C4.82197 0.718555 6.39139 0.220979 8 0.222202C9.18951 0.218678 10.3637 0.490592 11.4306 1.01665C11.4965 1.04946 11.5467 1.10709 11.5701 1.17689C11.5935 1.24668 11.5883 1.32293 11.5556 1.38887C11.5396 1.42174 11.5172 1.45114 11.4898 1.47536C11.4625 1.49959 11.4306 1.51817 11.396 1.53004C11.3614 1.54191 11.3248 1.54684 11.2883 1.54454C11.2518 1.54224 11.2162 1.53276 11.1833 1.51665C9.56518 0.722032 7.70836 0.561304 5.97774 1.06605C4.24712 1.57079 2.76783 2.70451 1.83056 4.24442C0.921426 5.73851 0.585343 7.51174 0.884707 9.23487C1.18407 10.958 2.09854 12.514 3.45833 13.6139C3.48666 13.637 3.51015 13.6655 3.52745 13.6977C3.54474 13.7299 3.5555 13.7652 3.55912 13.8016C3.56273 13.838 3.55912 13.8748 3.5485 13.9098C3.53788 13.9447 3.52045 13.9773 3.49722 14.0055C3.47106 14.0386 3.43771 14.0654 3.39968 14.0836C3.36166 14.1019 3.31997 14.1113 3.27778 14.1111ZM8 15.7778C6.7589 15.7811 5.53534 15.4848 4.43333 14.9139C4.36777 14.88 4.31835 14.8214 4.29595 14.7511C4.27355 14.6808 4.28 14.6044 4.31389 14.5389C4.34778 14.4733 4.40633 14.4239 4.47665 14.4015C4.54698 14.3791 4.62332 14.3855 4.68889 14.4194C6.0887 15.142 7.68637 15.387 9.23839 15.1172C10.7904 14.8475 12.2117 14.0776 13.2855 12.9251C14.3594 11.7726 15.027 10.3005 15.1866 8.73333C15.3462 7.16614 14.989 5.58976 14.1694 4.24442C13.7379 3.53837 13.1893 2.91089 12.5472 2.38887C12.4904 2.34264 12.4541 2.27583 12.4463 2.203C12.4385 2.13017 12.4598 2.0572 12.5056 1.99998C12.5285 1.97144 12.5568 1.94772 12.5889 1.93017C12.6211 1.91262 12.6563 1.9016 12.6927 1.89773C12.7291 1.89385 12.7659 1.89721 12.801 1.90761C12.8361 1.91801 12.8688 1.93524 12.8972 1.95831C13.5879 2.52012 14.1779 3.19553 14.6417 3.95554C15.3595 5.13468 15.7506 6.48364 15.7747 7.86389C15.7989 9.24414 15.4553 10.606 14.7791 11.8095C14.103 13.013 13.1187 14.0149 11.9273 14.7123C10.736 15.4097 9.38046 15.7774 8 15.7778Z" fill="#FF4100"/>
<path d="M7.72225 15.5C7.65341 15.4998 7.58708 15.474 7.53614 15.4277C6.49286 14.4922 5.69784 13.3125 5.22225 11.9944C4.69473 10.7275 4.41197 9.37211 4.38892 7.99996C4.39197 6.62474 4.67553 5.26461 5.22225 4.00273C5.74373 2.70923 6.53219 1.54026 7.53614 0.572179C7.59136 0.527832 7.66144 0.506254 7.73204 0.511858C7.80265 0.517461 7.86845 0.549823 7.91598 0.602327C7.96352 0.65483 7.98921 0.72351 7.98779 0.794322C7.98637 0.865134 7.95796 0.932731 7.90836 0.98329C6.95969 1.89641 6.21389 2.99903 5.71947 4.2194C5.20767 5.41406 4.944 6.70028 4.94447 7.99996C4.9623 9.29889 5.22622 10.5827 5.72225 11.7833C6.17127 13.0258 6.92257 14.137 7.90836 15.0166C7.9498 15.0543 7.9789 15.1036 7.99181 15.1581C8.00473 15.2126 8.00087 15.2697 7.98075 15.322C7.96062 15.3743 7.92517 15.4192 7.87904 15.451C7.83291 15.4827 7.77825 15.4998 7.72225 15.5Z" fill="#FF4100"/>
<path d="M8.27775 15.4999C8.22175 15.4998 8.16709 15.4827 8.12096 15.4509C8.07483 15.4192 8.03938 15.3742 8.01925 15.322C7.99913 15.2697 7.99527 15.2126 8.00819 15.1581C8.02111 15.1036 8.0502 15.0543 8.09164 15.0166C9.07743 14.137 9.82873 13.0258 10.2778 11.7833C10.7738 10.5826 11.0377 9.29885 11.0555 7.99992C11.056 6.70024 10.7923 5.41403 10.2805 4.21937C9.78611 2.99899 9.04031 1.89638 8.09164 0.983255C8.06212 0.959547 8.03776 0.930055 8.02005 0.896589C8.00234 0.863123 7.99166 0.826391 7.98866 0.788647C7.98567 0.750903 7.99042 0.712946 8.00263 0.677105C8.01484 0.641265 8.03424 0.608299 8.05966 0.580232C8.08507 0.552164 8.11595 0.529589 8.1504 0.513891C8.18486 0.498193 8.22216 0.489705 8.26001 0.488947C8.29787 0.48819 8.33548 0.495179 8.37053 0.509486C8.40559 0.523793 8.43735 0.545115 8.46386 0.572144C9.47282 1.53889 10.2661 2.70795 10.7916 4.0027C11.3336 5.26557 11.6124 6.62567 11.6111 7.99992C11.588 9.37208 11.3053 10.7275 10.7778 11.9944C10.299 13.3137 9.50008 14.4934 8.45275 15.4277C8.40468 15.4715 8.34274 15.4971 8.27775 15.4999Z" fill="#FF4100"/>
<path d="M15.4999 8.2777H0.499946C0.426274 8.2777 0.355621 8.24843 0.303527 8.19634C0.251434 8.14424 0.222168 8.07359 0.222168 7.99992C0.222168 7.92625 0.251434 7.85559 0.303527 7.8035C0.355621 7.75141 0.426274 7.72214 0.499946 7.72214H15.4999C15.5736 7.72214 15.6443 7.75141 15.6964 7.8035C15.7485 7.85559 15.7777 7.92625 15.7777 7.99992C15.7777 8.07359 15.7485 8.14424 15.6964 8.19634C15.6443 8.24843 15.5736 8.2777 15.4999 8.2777ZM14.3888 4.38881H1.61106C1.53739 4.38881 1.46673 4.35954 1.41464 4.30745C1.36254 4.25536 1.33328 4.1847 1.33328 4.11103C1.33328 4.03736 1.36254 3.9667 1.41464 3.91461C1.46673 3.86252 1.53739 3.83325 1.61106 3.83325H14.3888C14.4625 3.83325 14.5332 3.86252 14.5853 3.91461C14.6373 3.9667 14.6666 4.03736 14.6666 4.11103C14.6666 4.1847 14.6373 4.25536 14.5853 4.30745C14.5332 4.35954 14.4625 4.38881 14.3888 4.38881ZM14.3888 12.1666H1.61106C1.53739 12.1666 1.46673 12.1373 1.41464 12.0852C1.36254 12.0331 1.33328 11.9625 1.33328 11.8888C1.33328 11.8151 1.36254 11.7445 1.41464 11.6924C1.46673 11.6403 1.53739 11.611 1.61106 11.611H14.3888C14.4625 11.611 14.5332 11.6403 14.5853 11.6924C14.6373 11.7445 14.6666 11.8151 14.6666 11.8888C14.6666 11.9625 14.6373 12.0331 14.5853 12.0852C14.5332 12.1373 14.4625 12.1666 14.3888 12.1666Z" fill="#FF4100"/>
<path d="M7.99995 15.5C7.92627 15.5 7.85562 15.4707 7.80353 15.4186C7.75143 15.3665 7.72217 15.2959 7.72217 15.2222V0.777778C7.72217 0.704107 7.75143 0.633453 7.80353 0.581359C7.85562 0.529266 7.92627 0.5 7.99995 0.5C8.07362 0.5 8.14427 0.529266 8.19636 0.581359C8.24846 0.633453 8.27772 0.704107 8.27772 0.777778V15.2222C8.27772 15.2959 8.24846 15.3665 8.19636 15.4186C8.14427 15.4707 8.07362 15.5 7.99995 15.5Z" fill="#FF4100"/>
</svg>
