<svg width="24" height="25" viewBox="0 0 24 25" fill="none" xmlns="http://www.w3.org/2000/svg">
<path d="M9.88867 16.5479C11.1249 16.4482 12.3661 16.436 13.6035 16.5107L14.1338 16.5479L14.1445 16.5488C14.9063 16.5932 15.6653 16.6884 16.415 16.834V16.833C17.9557 17.1455 18.827 17.6172 19.2217 18.2305L19.2939 18.3555C19.5684 18.9042 19.5684 19.5567 19.2939 20.1055C18.9591 20.7432 18.192 21.2618 16.7119 21.5664L16.4062 21.625L16.3936 21.627C15.6457 21.7778 14.8888 21.8763 14.1279 21.9209L14.1152 21.9219L14.1016 21.9229C13.4068 21.9994 12.7075 22 11.9678 22H10.668C10.393 21.9662 10.1241 21.9472 9.86133 21.9463C9.29274 21.9169 8.7261 21.8574 8.16406 21.7656L7.60254 21.6631L7.59863 21.6621L7.2998 21.6006C5.94953 21.3026 5.16282 20.8423 4.79297 20.2666L4.71973 20.1416C4.61265 19.9369 4.54319 19.7136 4.51465 19.4834L4.5 19.251V19.248L4.51172 19.0146C4.52909 18.8604 4.56556 18.7092 4.61914 18.5645L4.71289 18.3525V18.3516C5.03828 17.7205 5.83541 17.2072 7.29395 16.8945L7.59473 16.835L7.60059 16.834C8.16408 16.7234 8.73252 16.6423 9.30371 16.5908L9.87598 16.5488L9.88867 16.5479ZM12.0029 3C14.6138 3.00017 16.7539 5.18082 16.7539 7.90039C16.7539 10.6199 14.6138 12.8006 12.0029 12.8008C9.39196 12.8008 7.25099 10.62 7.25098 7.90039C7.25098 5.18072 9.39195 3 12.0029 3Z" stroke="white"/>
</svg>
