<svg width="16" height="18" viewBox="0 0 16 18" fill="none" xmlns="http://www.w3.org/2000/svg">
<path d="M6.09058 5.22623C6.17995 5.22623 6.2687 5.20498 6.3512 5.16311L10.4106 3.08061C10.6106 2.97811 10.7337 2.76811 10.7262 2.54123C10.7187 2.31436 10.5825 2.11311 10.3762 2.02373L6.38433 0.296231C6.20808 0.219981 6.00495 0.236856 5.8437 0.343106C5.68183 0.448106 5.5837 0.628106 5.57995 0.822481L5.55808 2.06373C2.4512 3.11373 0.390578 6.04498 0.503703 9.3456C0.593703 11.9669 2.09245 14.3762 4.4162 15.6325C4.50308 15.6794 4.5962 15.7012 4.68808 15.7012C4.89433 15.7012 5.0937 15.5894 5.19745 15.3931C5.34745 15.1087 5.24183 14.7556 4.96058 14.6037C2.9987 13.5425 1.73308 11.5125 1.65683 9.30498C1.5662 6.66498 3.13183 4.30498 5.5362 3.31498L5.51308 4.63186C5.50995 4.83623 5.61245 5.02811 5.78433 5.13686C5.87745 5.19686 5.9837 5.22623 6.09058 5.22623ZM8.78745 2.60561L6.68495 3.68436L6.71995 1.71061L8.78745 2.60561ZM15.4956 8.83998C15.4118 6.40623 14.1306 4.16373 12.0693 2.84061C11.7981 2.66748 11.4431 2.74811 11.2725 3.02061C11.1025 3.29248 11.1818 3.65311 11.4506 3.82561C13.1912 4.94248 14.2731 6.83186 14.3431 8.87998C14.4275 11.3287 13.0768 13.5587 10.9231 14.6587L10.8893 13.3425C10.8831 13.1381 10.7725 12.9519 10.5968 12.8506C10.4212 12.75 10.2056 12.7487 10.03 12.8494L6.06308 15.1006C5.86745 15.2119 5.7537 15.4269 5.76995 15.6531C5.78683 15.8787 5.9312 16.0744 6.1412 16.155L10.205 17.7125C10.2718 17.7375 10.3406 17.75 10.4093 17.75C10.5268 17.75 10.6443 17.7131 10.7431 17.6425C10.9 17.53 10.9906 17.3456 10.9862 17.1519L10.955 15.9281C13.7906 14.7262 15.6018 11.93 15.4956 8.83998ZM7.70495 15.5062L9.75995 14.34L9.81058 16.3131L7.70495 15.5062Z" fill="#FF4100"/>
</svg>
