<svg width="14" height="18" viewBox="0 0 14 18" fill="none" xmlns="http://www.w3.org/2000/svg">
<path d="M7.76671 11.4999C7.75007 11.4487 7.7247 11.4008 7.69171 11.3583L7.59171 11.2333C7.51424 11.1552 7.42208 11.0932 7.32053 11.0509C7.21898 11.0085 7.11006 10.9868 7.00005 10.9868C6.89004 10.9868 6.78111 11.0085 6.67956 11.0509C6.57802 11.0932 6.48585 11.1552 6.40838 11.2333C6.36865 11.2694 6.3349 11.3116 6.30838 11.3583C6.2754 11.4008 6.25002 11.4487 6.23338 11.4999C6.20925 11.5501 6.19241 11.6034 6.18338 11.6583C6.1793 11.711 6.1793 11.7639 6.18338 11.8166C6.18048 11.9286 6.20329 12.0398 6.25005 12.1416C6.33485 12.3443 6.49624 12.5052 6.69912 12.5895C6.902 12.6738 7.12995 12.6745 7.33338 12.5916C7.43466 12.5463 7.52761 12.4843 7.60838 12.4083C7.68334 12.3315 7.74276 12.2409 7.78338 12.1416C7.82716 12.0388 7.84983 11.9283 7.85005 11.8166C7.85413 11.7639 7.85413 11.711 7.85005 11.6583C7.83058 11.6015 7.80247 11.5481 7.76671 11.4999ZM7.00005 5.13327C6.77903 5.13327 6.56707 5.22106 6.41079 5.37734C6.25451 5.53362 6.16671 5.74558 6.16671 5.9666V8.4666C6.16671 8.68761 6.25451 8.89957 6.41079 9.05585C6.56707 9.21213 6.77903 9.29993 7.00005 9.29993C7.22106 9.29993 7.43302 9.21213 7.5893 9.05585C7.74558 8.89957 7.83338 8.68761 7.83338 8.4666V5.9666C7.83338 5.74558 7.74558 5.53362 7.5893 5.37734C7.43302 5.22106 7.22106 5.13327 7.00005 5.13327ZM13.3584 2.0416C13.2616 1.96328 13.1484 1.90766 13.0273 1.87882C12.9062 1.84997 12.7801 1.84865 12.6584 1.87493C11.7679 2.06155 10.8487 2.06393 9.95724 1.88192C9.06582 1.69991 8.22108 1.33736 7.47505 0.816598C7.33555 0.719825 7.16982 0.667969 7.00005 0.667969C6.83027 0.667969 6.66454 0.719825 6.52505 0.816598C5.77901 1.33736 4.93427 1.69991 4.04285 1.88192C3.15143 2.06393 2.23218 2.06155 1.34171 1.87493C1.21999 1.84865 1.09393 1.84997 0.972796 1.87882C0.851659 1.90766 0.738525 1.96328 0.641712 2.0416C0.545028 2.12003 0.467146 2.21913 0.413789 2.33161C0.360432 2.44409 0.332956 2.5671 0.333379 2.6916V8.89993C0.332638 10.0947 0.617356 11.2724 1.16382 12.3349C1.71029 13.3974 2.5027 14.314 3.47505 15.0083L6.51671 17.1749C6.65785 17.2754 6.82679 17.3294 7.00005 17.3294C7.1733 17.3294 7.34224 17.2754 7.48338 17.1749L10.525 15.0083C11.4974 14.314 12.2898 13.3974 12.8363 12.3349C13.3827 11.2724 13.6675 10.0947 13.6667 8.89993V2.6916C13.6671 2.5671 13.6397 2.44409 13.5863 2.33161C13.5329 2.21913 13.4551 2.12003 13.3584 2.0416ZM12 8.89993C12.0007 9.8289 11.7795 10.7446 11.3548 11.5708C10.9301 12.397 10.3142 13.1098 9.55838 13.6499L7.00005 15.4749L4.44171 13.6499C3.68591 13.1098 3.07003 12.397 2.64534 11.5708C2.22064 10.7446 1.99941 9.8289 2.00005 8.89993V3.64993C3.74707 3.79946 5.49675 3.39412 7.00005 2.4916C8.50335 3.39412 10.253 3.79946 12 3.64993V8.89993Z" fill="#FF4100"/>
</svg>
