<svg width="41" height="41" viewBox="0 0 41 41" fill="none" xmlns="http://www.w3.org/2000/svg">
<path d="M11.0173 25.5718V25.5708L15.2615 29.8149V29.8159C15.3067 29.8613 15.3538 29.9047 15.4011 29.9478C15.1299 30.1098 14.8189 30.1997 14.4978 30.1997C14.0923 30.1996 13.7009 30.0602 13.3884 29.8071L13.2595 29.6919L11.1394 27.5718C10.8117 27.2437 10.6277 26.7982 10.6277 26.3345C10.6278 26.0125 10.7175 25.7002 10.8816 25.4292C10.9257 25.4777 10.9708 25.5254 11.0173 25.5718ZM22.4011 12.439C22.807 12.439 23.1982 12.5805 23.5095 12.8354L23.6384 12.9517L27.8826 17.1948C28.2106 17.523 28.3943 17.9681 28.3943 18.4321C28.3943 18.8382 28.2539 19.2301 27.9988 19.5415L27.8826 19.6694L27.405 20.146C27.283 20.268 27.1436 20.3716 26.9919 20.4526L26.8367 20.5259C26.6244 20.6138 26.3965 20.6587 26.1667 20.6587C25.9944 20.6587 25.8233 20.6334 25.6589 20.5835L25.4978 20.5259C25.3387 20.46 25.19 20.371 25.0574 20.2622L24.9294 20.146L23.3376 18.5562L22.9841 18.2026L18.3884 22.7983L18.0359 23.1519L18.3884 23.5054L19.9792 25.0972C20.3073 25.4253 20.4919 25.8704 20.4919 26.3345C20.4919 26.7981 20.3078 27.2428 19.9802 27.5708L19.5017 28.0483C19.1735 28.3763 18.7284 28.561 18.2644 28.561C17.8585 28.561 17.4673 28.4195 17.156 28.1646L17.0271 28.0483L12.7839 23.8052C12.4559 23.477 12.2713 23.0318 12.2712 22.5679C12.2712 22.1618 12.4126 21.7699 12.6677 21.4585L12.7839 21.3306L13.2615 20.854V20.853C13.3835 20.731 13.523 20.6284 13.6746 20.5474L13.8298 20.4741C14.0421 20.3862 14.27 20.3403 14.4998 20.3403C14.6722 20.3404 14.8432 20.3666 15.0076 20.4165L15.1687 20.4741C15.3278 20.54 15.4764 20.6289 15.6091 20.7378L15.7371 20.853V20.854L17.3289 22.4438L17.6824 22.7974L18.0359 22.4438L22.2771 18.2017L22.6306 17.8481L22.2781 17.4946L20.6873 15.9028C20.3592 15.5747 20.1746 15.1296 20.1746 14.6655C20.1746 14.2016 20.3592 13.7564 20.6873 13.4282L20.6863 13.4272L21.1638 12.9517C21.492 12.6236 21.9371 12.439 22.4011 12.439ZM26.1677 10.7944C26.5734 10.7944 26.9649 10.9353 27.2761 11.1899L27.405 11.3062L29.5271 13.4282C29.8547 13.7562 30.0387 14.201 30.0388 14.6646C30.0388 14.9868 29.9472 15.2987 29.783 15.5698C29.7393 15.5218 29.6952 15.4741 29.6492 15.4282H29.6482L25.4041 11.1841H25.405C25.3587 11.1376 25.311 11.0925 25.2625 11.0483C25.5334 10.8843 25.8457 10.7945 26.1677 10.7944Z" stroke="white"/>
</svg>
